<svg width="17" height="16" viewBox="0 0 17 16" fill="none" xmlns="http://www.w3.org/2000/svg">
<path d="M3.16659 13.3333H13.8333C14.1869 13.3333 14.526 13.1929 14.7761 12.9428C15.0261 12.6928 15.1666 12.3536 15.1666 12V5.33333C15.1666 4.97971 15.0261 4.64057 14.7761 4.39052C14.526 4.14048 14.1869 4 13.8333 4H8.54659C8.32698 3.99886 8.11105 3.9435 7.91798 3.83883C7.72492 3.73415 7.5607 3.58341 7.43992 3.4L6.89325 2.6C6.77247 2.41659 6.60825 2.26585 6.41519 2.16117C6.22212 2.0565 6.00619 2.00114 5.78659 2H3.16659C2.81296 2 2.47382 2.14048 2.22378 2.39052C1.97373 2.64057 1.83325 2.97971 1.83325 3.33333V12C1.83325 12.7333 2.43325 13.3333 3.16659 13.3333Z" stroke="white" stroke-width="1.5" stroke-linecap="round" stroke-linejoin="round"/>
<path d="M8.5 6.66675V10.6667" stroke="white" stroke-width="1.5" stroke-linecap="round" stroke-linejoin="round"/>
<path d="M6.5 8.66675H10.5" stroke="white" stroke-width="1.5" stroke-linecap="round" stroke-linejoin="round"/>
</svg>
