<svg  viewBox="0 0 195 26" fill="none" xmlns="http://www.w3.org/2000/svg">
<path d="M41.8963 9.45354H39.5041H37.1119H34.7196V11.4246H32.3274V9.45354V7.09015V4.72677V2.36338V0H29.9352H27.543V2.36338V4.72677V7.09015V9.45354V11.8169V14.1803V16.5437V18.9071V21.2705V23.6338V25.9972H29.9352H32.3274V23.6338V21.2705V18.9071V16.5437V16.1514H34.7196V14.1803H37.1119H39.5041V16.5437V18.9071V21.2705V23.6338V25.9972H41.8963H44.2885V23.6338V21.2705V18.9071V16.5437V14.1803V11.8169H41.8963V9.45354Z" fill="#4E63F9"/>
<path d="M104.096 9.45354H101.703H99.3111H96.9189V11.4246H94.5266V9.45354V7.09015V4.72677V2.36338V0H92.1344H89.7422V2.36338V4.72677V7.09015V9.45354V11.8169V14.1803V16.5437V18.9071V21.2705V23.6338V25.9972H92.1344H94.5266V23.6338V21.2705V18.9071V16.5437V16.1514H96.9189V14.1803H99.3111H101.703V16.5437V18.9071V21.2705V23.6338V25.9972H104.096H106.488V23.6338V21.2705V18.9071V16.5437V14.1803V11.8169H104.096V9.45354Z" fill="#4E63F9"/>
<path d="M65.819 0H63.4268V2.36338H65.819V4.72677V7.09015V9.45354V11.8169V14.1803V16.5437V18.9071V21.2705V23.6338V25.9972H68.2112H70.6034V23.6338V21.2705V18.9071V16.5437V14.1803V11.8169V9.45354V7.09015V4.72677V2.36338V0H68.2112H65.819Z" fill="#4E63F9"/>
<path d="M151.94 9.45354V11.8169H149.548V14.1803H147.156V11.8169V9.45354V7.09015V4.72677V2.36338V0H144.763H142.371V2.36338V4.72677V7.09015V9.45354V11.8169V14.1803V16.5437V18.9071V21.2705V23.6338V25.9972H144.763H147.156V23.6338V21.2705H149.548V23.6338H151.94V25.9972H154.332H156.724V23.6338V21.2705H154.332V18.9071H151.94V16.5437H154.332V14.1803H156.724V11.8169V9.45354H154.332H151.94Z" fill="#4E63F9"/>
<path d="M161.507 23.3193H159.115V25.6827H161.507V23.3193Z" fill="#4E63F9"/>
<path d="M173.468 9.45354V11.8169H171.076V14.1803H168.684V11.8169V9.45354V7.09015V4.72677V2.36338V0H166.292H163.899V2.36338V4.72677V7.09015V9.45354V11.8169V14.1803V16.5437V18.9071V21.2705V23.6338V25.9972H166.292H168.684V23.6338V21.2705H171.076V23.6338H173.468V25.9972H175.861H178.253V23.6338V21.2705H175.861V18.9071H173.468V16.5437H175.861V14.1803H178.253V11.8169V9.45354H175.861H173.468Z" fill="#4E63F9"/>
<path d="M192.608 11.8199V9.45654H190.215H187.823V11.8199H185.431V9.45654H183.039H180.646V11.8199V14.1833V16.5467V18.9101V21.2735V23.6368V26.0002H183.039H185.431V23.6368V21.2735V18.9101V16.5467H187.823V14.1833H190.215V16.5467H192.608H195V14.1833V11.8199H192.608Z" fill="#4E63F9"/>
<path d="M58.6428 9.45654V11.8199V14.1833V16.5467V18.9101V19.3024H56.2505V21.2735H53.8583H51.4661V18.9101V16.5467V14.1833V11.8199V9.45654H49.0739H46.6816V11.8199V14.1833V16.5467V18.9101V21.2735V23.6368H49.0739V26.0002H51.4661H53.8583H56.2505V24.0292H58.6428V26.0002H61.035H63.4272V23.6368V21.2735V18.9101V16.5467V14.1833V11.8199V9.45654H61.035H58.6428Z" fill="#4E63F9"/>
<path d="M137.587 9.45654H135.195H132.803H130.41H128.018V11.8199H125.626V14.1833V16.5467V18.9101V21.2735V23.6368H128.018V26.0002H130.41H132.803H135.195H137.587V23.6368H139.979V21.2735V18.9101H137.587H135.195V21.2735H132.803H130.41V18.9101V16.5467V14.1833H132.803H135.195V16.5467H137.587H139.979V14.1833V11.8199H137.587V9.45654Z" fill="#4E63F9"/>
<path d="M84.9572 9.45654H82.565H80.1728H77.7805H75.3883V11.8199H72.9961V14.1833V16.5467V18.9101V21.2735V23.6368H75.3883V26.0002H77.7805H80.1728H82.565H84.9572V23.6368H87.3494V21.2735V18.9101H84.9572H82.565V21.2735H80.1728H77.7805V18.9101V16.5467V14.1833H80.1728H82.565V16.5467H84.9572H87.3494V14.1833V11.8199H84.9572V9.45654Z" fill="#4E63F9"/>
<path d="M120.84 9.45654H111.271V11.8199H108.879V23.6368H111.271V26.0002H120.84V23.6368H123.232V21.2735H113.663V18.9101H123.232V11.8199H120.84V9.45654ZM116.056 16.5467H113.663V14.1833H118.448V16.5467H116.056Z" fill="#4E63F9"/>
<path d="M20.487 15.6338C19.3698 18.666 16.4226 20.7056 13.1572 20.7056C8.85601 20.7056 5.35619 17.248 5.35619 12.9986C5.35619 8.74925 8.85601 5.29162 13.1572 5.29162C16.425 5.29162 19.3698 7.32885 20.487 10.3634L20.6066 10.6872L25.6399 8.87687L25.5202 8.55309C23.6352 3.43636 18.6665 0 13.1572 0C5.90162 0 0 5.83047 0 12.9986C0 20.1668 5.90162 25.9972 13.1572 25.9972C18.6665 25.9972 23.6352 22.5609 25.5202 17.4441L25.6399 17.1204L20.6066 15.31L20.487 15.6338Z" fill="#4E63F9"/>
<path d="M18.205 5.69531H15.6836V8.18632V10.6773H18.205H20.7264V8.18632V5.69531H18.205Z" fill="#00D16D"/>
<path d="M23.2489 0.715332H20.7275V3.20634V5.69971H23.2489H25.7703V3.20634V0.715332H23.2489Z" fill="#00D16D"/>
<path d="M13.1589 10.6846H10.6758V13.1354V15.5886H13.1589H15.642V13.1354V10.6846H13.1589Z" fill="#00D16D"/>
<path d="M8.11808 5.69531H5.59668V8.18632V10.6773H8.11808H10.6419V8.18632V5.69531H8.11808Z" fill="#00D16D"/>
</svg>
